<?xml version="1.0" encoding="UTF-8"?>
<svg width="172px" height="96px" viewBox="0 0 172 96" version="1.1" xmlns="http://www.w3.org/2000/svg" xmlns:xlink="http://www.w3.org/1999/xlink">
    <title>Logo / x / MLB (on light) (just the logo)</title>
    <g id="Logo-/-x-/-MLB-(on-light)-(just-the-logo)" stroke="none" stroke-width="1" fill="none" fill-rule="evenodd">
        <path d="M157.403494,0 L14.3150545,0 C10.5217875,-0.0117198554 6.87657882,1.47140458 4.16912446,4.1282271 C1.46599736,6.83558996 -0.0359303648,10.5155485 0,14.3411671 L0,78.1921671 C-0.0407705134,82.004267 1.45723374,85.671956 4.15572446,88.3649071 C6.84979762,91.0582695 10.5055703,92.567847 14.3150545,92.5600276 L157.403494,92.5600276 C165.310275,92.5230894 171.698377,86.0990302 171.69131,78.1921671 L171.69131,14.3277671 C171.719385,10.5563935 170.248526,6.92817189 167.601899,4.24127037 C164.955273,1.55436884 161.349678,0.0288846138 157.578304,0 C157.520044,0 157.461774,0 157.403494,0 Z" id="border-&amp;-bg" fill="#FFFFFF" fill-rule="nonzero"></path>
        <path d="M166.664834,14.3277671 C166.724193,9.25022719 162.656154,5.08594764 157.578614,5.02596982 C157.520248,5.02596982 157.461874,5.02596982 157.403494,5.02596982 L117.409494,5.02596982 L140.355114,43.3716671 L142.472764,43.6396671 L143.813044,45.3954371 L143.813044,47.0305871 L145.260554,47.3254471 L146.600834,49.1482371 L146.600834,50.7297671 L148.101954,50.9978271 L149.616464,52.6463671 L149.616464,56.2919971 C151.419545,57.9198765 153.451583,59.2745663 155.647734,60.3128371 C157.671564,61.0902071 157.899404,64.3336871 159.119054,66.0626471 C160.646974,68.5823771 162.737814,69.5875871 162.295524,70.9948871 C161.276914,74.7610771 157.416904,81.1140071 153.824954,81.4088871 L139.618004,81.4088871 L139.618004,87.4937671 L157.416904,87.4937671 C162.553965,87.471745 166.700526,83.2894877 166.678602,78.1524271 L166.678602,78.1117971 L166.678602,14.3277971" id="red" fill="#BF0D3E" fill-rule="nonzero"></path>
        <path d="M68.8242945,81.5026671 L61.9486545,81.5026671 C61.9486545,64.3202671 67.7520645,54.8176671 74.7081345,52.9278671 C75.6597345,52.7536371 75.2040345,48.0626471 73.9977845,46.6285471 L69.9769445,46.6285471 C69.3336045,46.6285471 69.7088845,45.4222971 69.7088845,45.4222971 L72.9657645,38.4662271 L72.5234745,36.5630271 L60.4877445,36.5630271 L70.3790045,29.6471771 C70.8347145,11.4059971 89.5450045,9.9852471 100.816814,17.5846471 C107.518224,22.0209771 108.027524,30.8132271 107.518224,36.8846971 C107.437814,37.2733771 105.775854,37.0186971 105.775854,37.0186971 C105.775854,37.0186971 104.636614,43.7201071 107.612044,43.7201071 L120.760204,43.7201071 C126.121324,43.5056571 131.294814,47.1378171 131.294814,47.1378171 L132.554684,42.5406571 L103.752004,5.02605675 L14.3150045,5.02605675 C11.8408903,5.0117614 9.46121978,5.97518833 7.69400446,7.7067771 C5.95362927,9.46822337 4.98866362,11.8516946 5.01271463,14.3277771 L5.01271463,78.1921771 C4.98230498,80.6615643 5.9487713,83.0390723 7.69400446,84.7863571 C9.45031623,86.5425052 11.8313226,87.5305742 14.3150045,87.5339371 L72.3760045,87.5339371 C70.9553045,85.0946271 69.3335645,82.3202471 68.8376645,81.5026771" id="blue" fill="#041E42" fill-rule="nonzero"></path>
        <path d="M17.9070045,67.9524271 C17.9070934,65.3829018 19.4550189,63.0664423 21.8289851,62.0832107 C24.2029514,61.0999791 26.9354461,61.6436062 28.7523105,63.4605993 C30.5691749,65.2775924 31.1126084,68.0101256 30.1292086,70.3840222 C29.1458089,72.7579188 26.8292397,74.3055871 24.2597145,74.3055871 L24.2063345,74.3053571 C22.5392088,74.3090078 20.938914,73.6502459 19.7574967,72.4739915 C18.5760794,71.2977371 17.9103151,69.7003428 17.9066489,68.0332171 C17.9066489,68.0062904 17.9066489,67.9793604 17.9070045,67.9524271" id="ball" fill="#FFFFFF" fill-rule="nonzero"></path>
        <path d="M168.65975,90.9955833 L168.65975,90.2485 L169.135167,90.2485 C169.198556,90.2485 169.26534,90.2530278 169.335521,90.2620833 C169.405701,90.2711389 169.46909,90.2881181 169.525688,90.3130208 C169.582285,90.3379236 169.628694,90.3730139 169.664917,90.4182917 C169.701139,90.4635694 169.71925,90.5246944 169.71925,90.6016667 C169.71925,90.7737222 169.667181,90.8823889 169.563042,90.9276667 C169.458903,90.9729444 169.325333,90.9955833 169.162333,90.9955833 L168.65975,90.9955833 Z M168.096042,89.8070417 L168.096042,92.65275 L168.65975,92.65275 L168.65975,91.4370417 L169.012917,91.4370417 L169.705667,92.65275 L170.296542,92.65275 L169.535875,91.409875 C169.640014,91.4008194 169.737361,91.3804444 169.827917,91.34875 C169.918472,91.3170556 169.997708,91.2717778 170.065625,91.2129167 C170.133542,91.1540556 170.186743,91.0782153 170.225229,90.9853958 C170.263715,90.8925764 170.282958,90.7805139 170.282958,90.6492083 C170.282958,90.3413194 170.186743,90.1239861 169.994313,89.9972083 C169.801882,89.8704306 169.526819,89.8070417 169.169125,89.8070417 L168.096042,89.8070417 Z M167.19275,91.2332917 C167.19275,90.9435139 167.242556,90.6775069 167.342167,90.4352708 C167.441778,90.1930347 167.577611,89.983625 167.749667,89.8070417 C167.921722,89.6304583 168.12434,89.4923611 168.357521,89.39275 C168.590701,89.2931389 168.840861,89.2433333 169.108,89.2433333 C169.370611,89.2433333 169.618507,89.2931389 169.851687,89.39275 C170.084868,89.4923611 170.287486,89.6304583 170.459542,89.8070417 C170.631597,89.983625 170.768563,90.1930347 170.870438,90.4352708 C170.972313,90.6775069 171.02325,90.9435139 171.02325,91.2332917 C171.02325,91.5230694 170.972313,91.7902083 170.870438,92.0347083 C170.768563,92.2792083 170.631597,92.4908819 170.459542,92.6697292 C170.287486,92.8485764 170.084868,92.9878056 169.851687,93.0874167 C169.618507,93.1870278 169.370611,93.2368333 169.108,93.2368333 C168.840861,93.2368333 168.590701,93.1870278 168.357521,93.0874167 C168.12434,92.9878056 167.921722,92.8485764 167.749667,92.6697292 C167.577611,92.4908819 167.441778,92.2792083 167.342167,92.0347083 C167.242556,91.7902083 167.19275,91.5230694 167.19275,91.2332917 Z M166.5,91.2332917 C166.5,91.6226806 166.571313,91.9735833 166.713938,92.286 C166.856563,92.5984167 167.047861,92.8655556 167.287833,93.0874167 C167.527806,93.3092778 167.805132,93.4790694 168.119813,93.5967917 C168.434493,93.7145139 168.763889,93.773375 169.108,93.773375 C169.452111,93.773375 169.781507,93.7145139 170.096188,93.5967917 C170.410868,93.4790694 170.688194,93.3092778 170.928167,93.0874167 C171.168139,92.8655556 171.359438,92.5984167 171.502063,92.286 C171.644688,91.9735833 171.716,91.6226806 171.716,91.2332917 C171.716,90.8484306 171.644688,90.4997917 171.502063,90.187375 C171.359438,89.8749583 171.168139,89.6089514 170.928167,89.3893542 C170.688194,89.1697569 170.410868,88.9999653 170.096188,88.8799792 C169.781507,88.7599931 169.452111,88.7 169.108,88.7 C168.763889,88.7 168.434493,88.7599931 168.119813,88.8799792 C167.805132,88.9999653 167.527806,89.1697569 167.287833,89.3893542 C167.047861,89.6089514 166.856563,89.8749583 166.713938,90.187375 C166.571313,90.4997917 166.5,90.8484306 166.5,91.2332917 Z" id="®" fill="#BB0121" fill-rule="nonzero"></path>
    </g>
</svg>