<?xml version="1.0" encoding="UTF-8"?>
<svg width="172px" height="96px" viewBox="0 0 172 96" version="1.1" xmlns="http://www.w3.org/2000/svg" xmlns:xlink="http://www.w3.org/1999/xlink">
    <title>Logo / x / MLB (on dark) (just the logo)</title>
    <g id="Logo-/-x-/-MLB-(on-dark)-(just-the-logo)" stroke="none" stroke-width="1" fill="none" fill-rule="evenodd">
        <path d="M157.403494,0 L14.3150545,0 C10.5217875,-0.0117198554 6.87657882,1.47140458 4.16912446,4.1282271 C1.46599736,6.83558996 -0.0359303648,10.5155485 0,14.3411671 L0,78.1921671 C-0.0407705134,82.004267 1.45723374,85.671956 4.15572446,88.3649071 C6.84979762,91.0582695 10.5055703,92.567847 14.3150545,92.5600276 L157.403494,92.5600276 C165.310275,92.5230894 171.698377,86.0990302 171.69131,78.1921671 L171.69131,14.3277671 C171.719385,10.5563935 170.248526,6.92817189 167.601899,4.24127037 C164.955273,1.55436884 161.349678,0.0288846138 157.578304,0 C157.520044,0 157.461774,0 157.403494,0 Z" id="border-&amp;-bg" fill="#FFFFFF" fill-rule="nonzero"></path>
        <path d="M166.664834,14.3277671 C166.724193,9.25022719 162.656154,5.08594764 157.578614,5.02596982 C157.520248,5.02596982 157.461874,5.02596982 157.403494,5.02596982 L117.409494,5.02596982 L140.355114,43.3716671 L142.472764,43.6396671 L143.813044,45.3954371 L143.813044,47.0305871 L145.260554,47.3254471 L146.600834,49.1482371 L146.600834,50.7297671 L148.101954,50.9978271 L149.616464,52.6463671 L149.616464,56.2919971 C151.419545,57.9198765 153.451583,59.2745663 155.647734,60.3128371 C157.671564,61.0902071 157.899404,64.3336871 159.119054,66.0626471 C160.646974,68.5823771 162.737814,69.5875871 162.295524,70.9948871 C161.276914,74.7610771 157.416904,81.1140071 153.824954,81.4088871 L139.618004,81.4088871 L139.618004,87.4937671 L157.416904,87.4937671 C162.553965,87.471745 166.700526,83.2894877 166.678602,78.1524271 L166.678602,78.1117971 L166.678602,14.3277971" id="red" fill="#BF0D3E" fill-rule="nonzero"></path>
        <path d="M68.8242945,81.5026671 L61.9486545,81.5026671 C61.9486545,64.3202671 67.7520645,54.8176671 74.7081345,52.9278671 C75.6597345,52.7536371 75.2040345,48.0626471 73.9977845,46.6285471 L69.9769445,46.6285471 C69.3336045,46.6285471 69.7088845,45.4222971 69.7088845,45.4222971 L72.9657645,38.4662271 L72.5234745,36.5630271 L60.4877445,36.5630271 L70.3790045,29.6471771 C70.8347145,11.4059971 89.5450045,9.9852471 100.816814,17.5846471 C107.518224,22.0209771 108.027524,30.8132271 107.518224,36.8846971 C107.437814,37.2733771 105.775854,37.0186971 105.775854,37.0186971 C105.775854,37.0186971 104.636614,43.7201071 107.612044,43.7201071 L120.760204,43.7201071 C126.121324,43.5056571 131.294814,47.1378171 131.294814,47.1378171 L132.554684,42.5406571 L103.752004,5.02605675 L14.3150045,5.02605675 C11.8408903,5.0117614 9.46121978,5.97518833 7.69400446,7.7067771 C5.95362927,9.46822337 4.98866362,11.8516946 5.01271463,14.3277771 L5.01271463,78.1921771 C4.98230498,80.6615643 5.9487713,83.0390723 7.69400446,84.7863571 C9.45031623,86.5425052 11.8313226,87.5305742 14.3150045,87.5339371 L72.3760045,87.5339371 C70.9553045,85.0946271 69.3335645,82.3202471 68.8376645,81.5026771" id="blue" fill="#041E42" fill-rule="nonzero"></path>
        <path d="M17.9070045,67.9524271 C17.9070934,65.3829018 19.4550189,63.0664423 21.8289851,62.0832107 C24.2029514,61.0999791 26.9354461,61.6436062 28.7523105,63.4605993 C30.5691749,65.2775924 31.1126084,68.0101256 30.1292086,70.3840222 C29.1458089,72.7579188 26.8292397,74.3055871 24.2597145,74.3055871 L24.2063345,74.3053571 C22.5392088,74.3090078 20.938914,73.6502459 19.7574967,72.4739915 C18.5760794,71.2977371 17.9103151,69.7003428 17.9066489,68.0332171 C17.9066489,68.0062904 17.9066489,67.9793604 17.9070045,67.9524271" id="ball" fill="#FFFFFF" fill-rule="nonzero"></path>
        <path d="M168.85975,93.1455833 L168.85975,92.3985 L169.335167,92.3985 C169.398556,92.3985 169.46534,92.4030278 169.535521,92.4120833 C169.605701,92.4211389 169.66909,92.4381181 169.725688,92.4630208 C169.782285,92.4879236 169.828694,92.5230139 169.864917,92.5682917 C169.901139,92.6135694 169.91925,92.6746944 169.91925,92.7516667 C169.91925,92.9237222 169.867181,93.0323889 169.763042,93.0776667 C169.658903,93.1229444 169.525333,93.1455833 169.362333,93.1455833 L168.85975,93.1455833 Z M168.296042,91.9570417 L168.296042,94.80275 L168.85975,94.80275 L168.85975,93.5870417 L169.212917,93.5870417 L169.905667,94.80275 L170.496542,94.80275 L169.735875,93.559875 C169.840014,93.5508194 169.937361,93.5304444 170.027917,93.49875 C170.118472,93.4670556 170.197708,93.4217778 170.265625,93.3629167 C170.333542,93.3040556 170.386743,93.2282153 170.425229,93.1353958 C170.463715,93.0425764 170.482958,92.9305139 170.482958,92.7992083 C170.482958,92.4913194 170.386743,92.2739861 170.194312,92.1472083 C170.001882,92.0204306 169.726819,91.9570417 169.369125,91.9570417 L168.296042,91.9570417 Z M167.39275,93.3832917 C167.39275,93.0935139 167.442556,92.8275069 167.542167,92.5852708 C167.641778,92.3430347 167.777611,92.133625 167.949667,91.9570417 C168.121722,91.7804583 168.32434,91.6423611 168.557521,91.54275 C168.790701,91.4431389 169.040861,91.3933333 169.308,91.3933333 C169.570611,91.3933333 169.818507,91.4431389 170.051687,91.54275 C170.284868,91.6423611 170.487486,91.7804583 170.659542,91.9570417 C170.831597,92.133625 170.968562,92.3430347 171.070437,92.5852708 C171.172313,92.8275069 171.22325,93.0935139 171.22325,93.3832917 C171.22325,93.6730694 171.172313,93.9402083 171.070437,94.1847083 C170.968562,94.4292083 170.831597,94.6408819 170.659542,94.8197292 C170.487486,94.9985764 170.284868,95.1378056 170.051687,95.2374167 C169.818507,95.3370278 169.570611,95.3868333 169.308,95.3868333 C169.040861,95.3868333 168.790701,95.3370278 168.557521,95.2374167 C168.32434,95.1378056 168.121722,94.9985764 167.949667,94.8197292 C167.777611,94.6408819 167.641778,94.4292083 167.542167,94.1847083 C167.442556,93.9402083 167.39275,93.6730694 167.39275,93.3832917 Z M166.7,93.3832917 C166.7,93.7726806 166.771312,94.1235833 166.913938,94.436 C167.056563,94.7484167 167.247861,95.0155556 167.487833,95.2374167 C167.727806,95.4592778 168.005132,95.6290694 168.319813,95.7467917 C168.634493,95.8645139 168.963889,95.923375 169.308,95.923375 C169.652111,95.923375 169.981507,95.8645139 170.296188,95.7467917 C170.610868,95.6290694 170.888194,95.4592778 171.128167,95.2374167 C171.368139,95.0155556 171.559438,94.7484167 171.702063,94.436 C171.844687,94.1235833 171.916,93.7726806 171.916,93.3832917 C171.916,92.9984306 171.844687,92.6497917 171.702063,92.337375 C171.559438,92.0249583 171.368139,91.7589514 171.128167,91.5393542 C170.888194,91.3197569 170.610868,91.1499653 170.296188,91.0299792 C169.981507,90.9099931 169.652111,90.85 169.308,90.85 C168.963889,90.85 168.634493,90.9099931 168.319813,91.0299792 C168.005132,91.1499653 167.727806,91.3197569 167.487833,91.5393542 C167.247861,91.7589514 167.056563,92.0249583 166.913938,92.337375 C166.771312,92.6497917 166.7,92.9984306 166.7,93.3832917 Z" id="®" fill="#FFFFFF" fill-rule="nonzero"></path>
    </g>
</svg>