<?xml version="1.0" encoding="UTF-8"?> <svg xmlns="http://www.w3.org/2000/svg" clip-rule="evenodd" fill-rule="evenodd" stroke-linejoin="round" stroke-miterlimit="2" version="1.1" viewBox="0 0 950 184" xml:space="preserve"> <g transform="translate(-66 -40)"> <g fill="#fff" fill-rule="nonzero"> <path d="m398.05 90.177h28.069c16.679 0 27.053 9.458 27.053 23.797v0.204c0 15.967-12.815 24.306-28.476 24.306h-14.137v22.882h-12.509v-71.189zm27.052 37.018c9.458 0 15.357-5.289 15.357-12.712v-0.204c0-8.339-6-12.713-15.357-12.713h-14.543v25.629h14.543z"></path> <path d="m461.51 107.67h12.306v12.102c3.356-8.035 9.56-13.526 19.018-13.12v13.018h-0.712c-10.78 0-18.306 7.018-18.306 21.256v20.441h-12.306v-53.697z"></path> <path d="m496.09 134.82v-0.203c0-15.356 12.205-28.069 28.68-28.069 16.476 0 28.578 12.51 28.578 27.866v0.203c0 15.255-12.204 27.968-28.782 27.968-16.373 0-28.476-12.51-28.476-27.765zm44.952 0v-0.203c0-9.458-6.814-17.289-16.475-17.289-9.865 0-16.171 7.73-16.171 17.086v0.203c0 9.357 6.814 17.188 16.374 17.188 9.966 0 16.272-7.73 16.272-16.985z"></path> <path d="m562.09 90.177h28.069c16.679 0 27.052 9.458 27.052 23.797v0.204c0 15.967-12.814 24.306-28.476 24.306h-14.136v22.882h-12.509v-71.189zm27.052 37.018c9.458 0 15.357-5.289 15.357-12.712v-0.204c0-8.339-6.001-12.713-15.357-12.713h-14.543v25.629h14.543z"></path> <path d="m625.55 107.67h12.306v12.102c3.356-8.035 9.56-13.526 19.018-13.12v13.018h-0.712c-10.78 0-18.306 7.018-18.306 21.256v20.441h-12.306v-53.697z"></path> <path d="m660.33 134.72v-0.203c0-15.357 10.882-27.968 26.239-27.968 17.085 0 25.73 13.425 25.73 28.883 0 1.119-0.102 2.237-0.204 3.458h-39.459c1.322 8.746 7.526 13.628 15.458 13.628 6.001 0 10.272-2.238 14.543-6.408l7.221 6.408c-5.085 6.101-12.102 10.068-21.967 10.068-15.56 0-27.561-11.289-27.561-27.866zm39.765-3.966c-0.814-7.933-5.492-14.137-13.628-14.137-7.526 0-12.814 5.797-13.933 14.137h27.561z"></path> <path d="m717.28 154.35 5.492-8.339c5.899 4.373 12.103 6.61 17.594 6.61 5.289 0 8.34-2.237 8.34-5.797v-0.203c0-4.17-5.696-5.594-12.001-7.526-7.932-2.238-16.78-5.491-16.78-15.764v-0.203c0-10.17 8.441-16.374 19.119-16.374 6.712 0 14.035 2.34 19.73 6.102l-4.881 8.747c-5.187-3.153-10.679-5.085-15.154-5.085-4.78 0-7.525 2.237-7.525 5.288v0.204c0 3.966 5.796 5.593 12.102 7.627 7.831 2.441 16.678 6 16.678 15.662v0.203c0 11.289-8.746 16.882-19.933 16.882-7.627 0-16.068-2.745-22.781-8.034z"></path> <path d="m766.29 134.72v-0.203c0-15.357 10.882-27.968 26.239-27.968 17.085 0 25.73 13.425 25.73 28.883 0 1.119-0.102 2.237-0.204 3.458h-39.459c1.322 8.746 7.526 13.628 15.458 13.628 6.001 0 10.272-2.238 14.543-6.408l7.221 6.408c-5.085 6.101-12.102 10.068-21.967 10.068-15.561 0-27.561-11.289-27.561-27.866zm39.765-3.966c-0.814-7.933-5.492-14.137-13.628-14.137-7.526 0-12.814 5.797-13.933 14.137h27.561z"></path> <path d="m827 107.67h12.306v8.237c3.458-4.983 8.442-9.356 16.781-9.356 12.102 0 19.12 8.136 19.12 20.544v34.272h-12.306v-30.51c0-8.339-4.17-13.119-11.492-13.119-7.119 0-12.103 4.984-12.103 13.323v30.306h-12.306v-53.697z"></path> <path d="m888.84 146.52v-28.273h-6.813v-10.576h6.813v-14.747h12.306v14.747h14.442v10.576h-14.442v26.341c0 4.779 2.441 6.712 6.611 6.712 2.746 0 5.187-0.611 7.627-1.83v10.067c-3.051 1.73-6.407 2.746-11.085 2.746-9.052 0-15.459-3.966-15.459-15.763z"></path> <path d="m920.56 134.72v-0.203c0-15.357 10.882-27.968 26.239-27.968 17.086 0 25.729 13.425 25.729 28.883 0 1.119-0.101 2.237-0.203 3.458h-39.459c1.322 8.746 7.526 13.628 15.458 13.628 6 0 10.272-2.238 14.543-6.408l7.221 6.408c-5.085 6.101-12.103 10.068-21.967 10.068-15.56 0-27.56-11.289-27.56-27.866h-1e-3zm39.765-3.966c-0.814-7.933-5.492-14.137-13.628-14.137-7.526 0-12.814 5.797-13.933 14.137h27.561z"></path> <path d="m981.89 107.67h12.305v12.102c3.356-8.035 9.559-13.526 19.019-13.12v13.018h-0.71c-10.78 0-18.309 7.018-18.309 21.256v20.441h-12.305v-53.697z"></path> </g> <path d="m157.75 192.71-13.192 1.702-57.929 7.447c-1.043 0.128-2.068 0.182-3.074 0.109-1.427-0.055-2.836-0.292-4.172-0.695-7.209-2.141-12.589-8.819-12.589-16.888v-104.5c0-10.612 9.314-18.828 19.835-17.455l66.437 8.526 4.685 0.604c-1.647 0.421-3.184 1.08-4.593 1.94-1.683 1.006-3.166 2.268-4.41 3.751-2.616 3.073-4.172 7.044-4.172 11.344v87.077c0 8.069 5.471 15.04 13.175 17.035h-1e-3z" fill="url(#d)" fill-rule="nonzero"></path> <path d="m347.98 58.651v146.96c0 10.958-9.911 19.244-20.697 17.321l-95.546-17.009-72.645-12.927c-0.453-0.079-0.906-0.173-1.344-0.298l49.242-6.331c0.938-0.125 1.861-0.313 2.752-0.578 2.282-0.672 4.361-1.782 6.128-3.252 3.986-3.236 6.487-8.176 6.487-13.631v-73.551c0-8.848-6.581-16.336-15.367-17.462l-49.242-6.331c0.438-0.125 0.891-0.219 1.344-0.297l137.42-24.464 30.765-5.472c6.941-1.235 13.507 1.751 17.305 6.941 2.126 2.891 3.393 6.456 3.393 10.379v1e-3z" fill="url(#c)" fill-rule="nonzero"></path> <g opacity=".2"> <path d="m157.75 192.7-13.194 1.705c-4.752-3.392-7.55-9.099-7.112-15.57l6.049-90.982c0.407-6.033 4.205-11.396 9.661-14.35-5.19 3.079-8.582 8.739-8.582 15.086v87.088c0 8.066 5.487 15.039 13.178 17.023z" fill-rule="nonzero"></path> </g> <path d="m157.75 71.561c-1.646 0.421-3.111 1.211-4.592 1.94-50.394 24.798-73.775 127.77-73.775 127.77-7.209-2.141-12.589-8.819-12.589-16.888v-104.5c0-10.612 9.314-18.828 19.835-17.455l66.437 8.526 4.684 0.604z" fill="url(#b)" fill-rule="nonzero"></path> <path d="m222.37 95.362v73.551c0 8.848-6.581 16.336-15.367 17.461l-49.242 6.332c-7.692-1.986-13.179-8.958-13.179-17.024v-87.089c0-8.066 5.487-15.039 13.179-17.024l49.242 6.332c8.786 1.125 15.367 8.613 15.367 17.461z" fill="url(#a)" fill-rule="nonzero"></path> </g> <defs> <radialGradient id="d" cx="0" cy="0" r="1" gradientTransform="matrix(143.26 0 0 143.26 33.977 75.001)" gradientUnits="userSpaceOnUse"><stop stop-color="#fed100" offset="0"></stop><stop stop-color="#ff3f1f" offset="1"></stop></radialGradient> <radialGradient id="c" cx="0" cy="0" r="1" gradientTransform="matrix(397.35 0 0 397.35 199.45 104.26)" gradientUnits="userSpaceOnUse"><stop stop-color="#318fff" offset="0"></stop><stop stop-color="#8903d9" offset="1"></stop></radialGradient> <radialGradient id="b" cx="0" cy="0" r="1" gradientTransform="matrix(21569 0 0 21569 6253.8 8752.5)" gradientUnits="userSpaceOnUse"><stop stop-color="#fed100" offset="0"></stop><stop stop-color="#ff3f1f" offset="1"></stop></radialGradient> <radialGradient id="a" cx="0" cy="0" r="1" gradientTransform="matrix(25014 0 0 25014 5474.5 15005)" gradientUnits="userSpaceOnUse"><stop stop-color="#318fff" offset="0"></stop><stop stop-color="#8903d9" offset="1"></stop></radialGradient> </defs> </svg> 