<?xml version="1.0" encoding="UTF-8"?> <svg xmlns="http://www.w3.org/2000/svg" clip-rule="evenodd" fill-rule="evenodd" stroke-linejoin="round" stroke-miterlimit="2" viewBox="0 0 91 101" xml:space="preserve"><path d="m51.642 36.199v31.716c-24.257 17.853-15.337 23.227-28.944 30.932-0.012 0-0.024 0-0.037 0.012-1.239 0.478-2.539 0.822-3.901 0.994 2.245-0.527 3.901-2.527 3.901-4.933v-7.054c0.307-5.718 2.577-19.496 16.81-29.214 8.429-5.754 11.962-14.171 12.171-22.453z" fill="url(#e)"></path><path d="m22.661 87.866c-0.073 1.656 0 2.637 0 2.637v4.417c0 2.406-1.656 4.406-3.901 4.933-0.013 0.013-0.025 0.013-0.05 0.013-0.515 0.061-1.018 0.11-1.546 0.11-0.184 0.024-0.38 0.024-0.576 0.024-9.165 0-16.588-7.422-16.588-16.588v-66.378c0-9.165 7.423-16.588 16.588-16.588 0.196 0 0.392 0 0.576 0.024 0.528 0 1.043 0.05 1.546 0.111 0.025 0 0.05 0 0.062 0.012 2.233 0.528 3.889 2.54 3.889 4.932v82.341z" fill="url(#d)"></path><path d="m58.451 63.167c-2.527 1.681-4.785 3.251-6.809 4.748v-31.716c0.27-10.441-4.761-20.662-11.926-24.969l13.496 7.792 0.749 0.429 8.294 4.785c0.122 0.074 0.245 0.148 0.368 0.221 7.03 4.589 16.355 25.091-4.172 38.71z" fill="url(#c)"></path><path d="m51.642 36.199c-0.209 8.282-3.742 16.699-12.171 22.453-14.233 9.718-16.503 23.496-16.81 29.214v-82.341c0-2.392-1.656-4.404-3.889-4.932 1.362 0.172 2.663 0.515 3.889 1.006 0.65 0.246 1.276 0.54 1.878 0.871l0.65 0.381 14.282 8.232c0.086 0.049 0.159 0.099 0.245 0.147 7.165 4.307 12.196 14.528 11.926 24.969z" fill="url(#b)"></path><path d="m90.659 50.223c0 0.368-0.013 0.724-0.037 1.067-0.012 0.197-0.024 0.393-0.049 0.589 0.012 0.099 0 0.185-0.025 0.283-0.086 0.76-0.233 1.508-0.417 2.245-0.037 0.147-0.073 0.306-0.135 0.442 0 0.036-0.012 0.073-0.024 0.098-2.736 7.987-13.178 6.454-22.478 13.043-4.454 3.153-4.981 7.766-7.84 9.668-0.037 0.024-0.062 0.048-0.098 0.073-0.062 0.05-0.135 0.086-0.197 0.123-0.086 0.061-0.184 0.11-0.27 0.159-0.711 0.381-1.509 0.589-2.367 0.589-2.81 0-5.08-2.282-5.08-5.079v-5.608c2.024-1.497 4.282-3.067 6.809-4.748 20.527-13.619 11.202-34.121 4.172-38.71l19.361 11.178 0.368 0.208c4.97 2.871 8.307 8.233 8.307 14.38z" fill="url(#a)"></path><defs><radialGradient id="e" cx="0" cy="0" r="1" gradientTransform="matrix(38.441 0 0 38.441 31.892 76.657)" gradientUnits="userSpaceOnUse"><stop stop-color="#6dc7b4" offset="0"></stop><stop stop-color="#52b848" offset=".9"></stop><stop stop-color="#4db848" offset="1"></stop></radialGradient><radialGradient id="d" cx="0" cy="0" r="1" gradientTransform="matrix(86.573 0 0 86.573 -9.977 10.205)" gradientUnits="userSpaceOnUse"><stop stop-color="#f89b27" offset="0"></stop><stop stop-color="#ef4253" offset=".6"></stop><stop stop-color="#ed156e" offset="1"></stop></radialGradient><radialGradient id="c" cx="0" cy="0" r="1" gradientTransform="matrix(43.898 0 0 43.898 36.419 52.361)" gradientUnits="userSpaceOnUse"><stop stop-color="#4db848" offset="0"></stop><stop stop-color="#21b786" offset=".3"></stop><stop stop-color="#1fa3c9" offset=".6"></stop><stop stop-color="#2c9cd7" offset=".7"></stop><stop stop-color="#5385c5" offset="1"></stop></radialGradient><radialGradient id="b" cx="0" cy="0" r="1" gradientTransform="matrix(52.113 0 0 52.113 46.362 62.862)" gradientUnits="userSpaceOnUse"><stop stop-color="#5385c5" offset="0"></stop><stop stop-color="#636bb2" offset=".2"></stop><stop stop-color="#9d479b" offset=".5"></stop><stop stop-color="#cf218f" offset=".7"></stop><stop stop-color="#ed0e76" offset=".9"></stop><stop stop-color="#ed156e" offset="1"></stop></radialGradient><radialGradient id="a" cx="0" cy="0" r="1" gradientTransform="matrix(39.038 0 0 39.038 79.407 67.313)" gradientUnits="userSpaceOnUse"><stop stop-color="#5385c5" offset="0"></stop><stop stop-color="#704b9e" offset=".9"></stop><stop stop-color="#77489c" offset="1"></stop></radialGradient></defs></svg> 